<svg preserveAspectRatio="none" width="100%" height="100%" overflow="visible" style="display: block;" viewBox="0 0 16.268 13.5984" fill="none" xmlns="http://www.w3.org/2000/svg">
<path id="Icon" d="M10.8036 9.46503L8.13689 6.79836M8.13689 6.79836L5.47022 9.46503M8.13689 6.79836V12.7984M13.7302 11.0584C14.3804 10.7039 14.8941 10.1429 15.1901 9.46411C15.4862 8.78527 15.5477 8.02718 15.365 7.30949C15.1824 6.59179 14.7659 5.95537 14.1813 5.50066C13.5968 5.04595 12.8775 4.79885 12.1369 4.79836H11.2969C11.0951 4.01786 10.719 3.29325 10.1969 2.67902C9.67471 2.0648 9.02012 1.57693 8.28229 1.2521C7.54446 0.927271 6.74259 0.773934 5.93696 0.803617C5.13134 0.833299 4.34293 1.04523 3.63101 1.42347C2.91908 1.80172 2.30216 2.33643 1.82664 2.98742C1.35111 3.6384 1.02935 4.38872 0.885541 5.18196C0.741734 5.9752 0.779624 6.79071 0.996363 7.5672C1.2131 8.34369 1.60305 9.06094 2.13689 9.66503" stroke="var(--stroke-0, #BA681F)" stroke-width="1.6" stroke-linecap="round" stroke-linejoin="round"/>
</svg>
