<?xml version="1.0" encoding="UTF-8" standalone="no"?>
<!-- Created with Inkscape (http://www.inkscape.org/) -->

<svg
   width="166"
   height="166"
   viewBox="0 0 43.920832 43.920833"
   version="1.1"
   xmlns="http://www.w3.org/2000/svg"
   xmlns:svg="http://www.w3.org/2000/svg">
  <defs
     id="defs1">
    <clipPath
       id="clip0_10_267">
      <rect
         width="48"
         height="48"
         fill="#ffffff"
         transform="translate(48,48)"
         id="rect3"
         x="0"
         y="0" />
    </clipPath>
  </defs>
  <g
     id="layer1">
    <rect
       x="-8.8817842e-16"
       y="-8.8817842e-16"
       width="43.920834"
       height="43.920834"
       rx="21.960417"
       fill="#100218"
       id="rect2"
       style="stroke-width:0.457509" />
    <g
       clip-path="url(#clip0_10_267)"
       id="g2"
       transform="matrix(0.45750864,0,0,0.45750864,-10.980231,-10.980202)">
      <path
         d="m 80,80 -8,-8 m 0,0 -8,8 m 8,-8 v 18 m 16.78,-5.22 c 1.9507,-1.0635 3.4917,-2.7462 4.3798,-4.7828 0.888,-2.0365 1.0726,-4.3107 0.5246,-6.4638 C 93.1364,71.3803 91.887,69.471 90.1334,68.1069 88.3797,66.7428 86.2217,66.0015 84,66 h -2.52 c -0.6054,-2.3415 -1.7337,-4.5153 -3.3001,-6.358 -1.5664,-1.8427 -3.5302,-3.3063 -5.7437,-4.2808 -2.2135,-0.9745 -4.6191,-1.4345 -7.036,-1.3454 -2.4168,0.089 -4.7821,0.7248 -6.9178,1.8595 -2.1358,1.1348 -3.9866,2.7389 -5.4131,4.6919 -1.4266,1.9529 -2.3919,4.2039 -2.8233,6.5836 -0.4314,2.3797 -0.3178,4.8263 0.3324,7.1557 C 51.2287,76.636 52.3985,78.7877 54,80.6"
         stroke="#ffeeec"
         stroke-width="4"
         stroke-linecap="round"
         stroke-linejoin="round"
         id="path2" />
    </g>
  </g>
</svg>
