<svg width="16" height="16" viewBox="0 0 16 16" fill="none" xmlns="http://www.w3.org/2000/svg">
    <g clip-path="url(#clip0_3124_311)">
        <path
            d="M5.33378 11.3333L8.00044 14M8.00044 14L10.6671 11.3333M8.00044 14V7.99999M13.9204 12.06C14.5 11.6524 14.9347 11.0708 15.1613 10.3994C15.3879 9.72808 15.3947 9.002 15.1807 8.32654C14.9667 7.65107 14.543 7.06138 13.9712 6.64303C13.3993 6.22467 12.709 5.99943 12.0004 5.99999H11.1604C10.9599 5.21857 10.5848 4.49282 10.0632 3.87737C9.54161 3.26193 8.88721 2.77283 8.14925 2.44689C7.41129 2.12095 6.60901 1.96667 5.80279 1.99566C4.99658 2.02466 4.20745 2.23617 3.49481 2.61427C2.78217 2.99237 2.16459 3.52722 1.68857 4.17854C1.21254 4.82986 0.890478 5.58068 0.746618 6.37449C0.602757 7.16829 0.64085 7.98438 0.85803 8.76133C1.07521 9.53828 1.46582 10.2558 2.00044 10.86"
            stroke="#BA681F"
            stroke-width="1.6"
            stroke-linecap="round"
            stroke-linejoin="round"
        />
    </g>
    <defs>
        <clipPath id="clip0_3124_311">
            <rect width="16" height="16" fill="white"/>
        </clipPath>
    </defs>
</svg>
