<?xml version="1.0" encoding="UTF-8" standalone="no"?>
<svg
   width="32"
   height="32"
   viewBox="0 0 8.4666665 8.4666666"
   version="1.1"
   fill="none"
   xmlns="http://www.w3.org/2000/svg"
   xmlns:svg="http://www.w3.org/2000/svg">
  <path
     id="rect1"
     style="fill:white;fill-rule:evenodd;stroke-width:0.26458333;stroke-dasharray:none;stroke:#ffa569;stroke-opacity:1"
     d="m 2.1166666,0.13229166 h 2.1166667 2.1166666 c 0.9932484,8.0146e-4 1.984375,0.99322104 1.984375,1.98437494 v 2.1166667 2.1166666 c 0.00103,0.9921875 -0.9921875,1.984375 -1.984375,1.984375 H 4.2333333 2.1166666 C 1.124201,8.3356405 0.13229165,7.3421874 0.13229166,6.3499999 V 4.2333333 2.1166666 C 0.13207579,1.1262561 1.1252226,0.13207579 2.1166666,0.13229166 Z" />
  <path
     d="m 16,16.6666 c 0.3682,0 0.6666,-0.2985 0.6666,-0.6666 0,-0.3682 -0.2984,-0.6667 -0.6666,-0.6667 -0.3682,0 -0.6667,0.2985 -0.6667,0.6667 0,0.3681 0.2985,0.6666 0.6667,0.6666 z"
     stroke="#e27f29"
     stroke-width="1.6"
     stroke-linecap="round"
     stroke-linejoin="round"
     id="path1"
     transform="matrix(0.26455627,0,0,0.26455627,4.4657697e-4,4.4678335e-4)" />
  <path
     d="m 16,12 c 0.3682,0 0.6666,-0.2985 0.6666,-0.6667 0,-0.3682 -0.2984,-0.6667 -0.6666,-0.6667 -0.3682,0 -0.6667,0.2985 -0.6667,0.6667 C 15.3333,11.7015 15.6318,12 16,12 Z"
     stroke="#e27f29"
     stroke-width="1.6"
     stroke-linecap="round"
     stroke-linejoin="round"
     id="path2"
     transform="matrix(0.26455627,0,0,0.26455627,4.4657697e-4,4.4678335e-4)" />
  <path
     d="m 16,21.3333 c 0.3682,0 0.6666,-0.2985 0.6666,-0.6667 C 16.6666,20.2984 16.3682,20 16,20 c -0.3682,0 -0.6667,0.2984 -0.6667,0.6666 0,0.3682 0.2985,0.6667 0.6667,0.6667 z"
     stroke="#e27f29"
     stroke-width="1.6"
     stroke-linecap="round"
     stroke-linejoin="round"
     id="path3"
     transform="matrix(0.26455627,0,0,0.26455627,4.4657697e-4,4.4678335e-4)" />
</svg>
